<svg width="32" height="32" viewBox="0 0 32 32" fill="none" xmlns="http://www.w3.org/2000/svg">
  <defs>
    <linearGradient id="gradient" x1="0%" y1="0%" x2="100%" y2="100%">
      <stop offset="0%" style="stop-color:#3B82F6;stop-opacity:1" />
      <stop offset="100%" style="stop-color:#8B5CF6;stop-opacity:1" />
    </linearGradient>
  </defs>
  <rect width="32" height="32" rx="8" fill="url(#gradient)"/>
  <path d="M8 6a2 2 0 012-2h12a2 2 0 012 2v4a2 2 0 01-2 2H10a2 2 0 01-2-2V6zM8 14a2 2 0 012-2h6a2 2 0 012 2v8a2 2 0 01-2 2H10a2 2 0 01-2-2v-8zM20 13a2 2 0 00-2 2v8a2 2 0 002 2h2a2 2 0 002-2v-8a2 2 0 00-2-2h-2z" fill="white"/>
</svg>
